<?xml version="1.0" encoding="utf-8"?>
<!-- Generator: Adobe Illustrator 25.2.1, SVG Export Plug-In . SVG Version: 6.00 Build 0)  -->
<svg version="1.1" id="Calque_1" xmlns="http://www.w3.org/2000/svg" xmlns:xlink="http://www.w3.org/1999/xlink" x="0px" y="0px"
	 viewBox="0 0 137.1 66.1" style="enable-background:new 0 0 137.1 66.1;" xml:space="preserve">
<style type="text/css">
	.Voûte _x002D__x0020_Vert{fill:url(#SVGID_1_);stroke:#FFFFFF;stroke-width:0.25;stroke-miterlimit:1;}
	.st0{fill:#FFFFFF;}
</style>
<linearGradient id="SVGID_1_" gradientUnits="userSpaceOnUse" x1="-3.2375" y1="103.2556" x2="-2.5304" y2="102.5485">
	<stop  offset="0" style="stop-color:#259E2E"/>
	<stop  offset="0.9831" style="stop-color:#1C381D"/>
</linearGradient>
<polygon class="st0" points="2.8,46.8 2.8,53.7 8.5,53.7 8.5,52.7 4,52.7 4,46.8 "/>
<polygon class="st0" points="31.3,53.7 35.3,46.5 38.4,51.4 41.6,46.5 45.5,53.7 44.2,53.7 41.6,48.8 38.4,53.4 35.3,48.8 
	32.7,53.7 "/>
<polygon class="st0" points="61.8,53.7 65.7,46.5 68.9,51.4 72.1,46.5 76,53.7 74.6,53.7 72.1,48.8 68.9,53.4 65.7,48.8 63.2,53.7 
	"/>
<path class="st0" d="M97.4,53.9c2.6,0,4.1-1.2,4.1-2.8v-4.3h-1.2V51c0,1.1-0.9,1.8-2.9,1.8c-2,0-2.9-0.7-2.9-1.8v-4.1h-1.2v4.3
	C93.3,52.8,94.8,53.9,97.4,53.9"/>
<polygon class="st0" points="107.1,46.8 107.1,53.7 108.3,53.7 108.3,48.5 113.5,53.7 114.6,53.7 114.6,46.8 113.4,46.8 113.4,52.1 
	108.4,46.8 "/>
<rect x="120.2" y="46.8" class="st0" width="1.2" height="6.9"/>
<path class="st0" d="M87.1,47.5c-0.8-0.6-1.8-0.9-3-0.9c-1.2,0-2.2,0.3-3,0.9c-0.9,0.7-1.4,1.6-1.4,2.7c0,1.1,0.5,2,1.4,2.7
	c0.8,0.6,1.8,0.9,3,0.9c1.2,0,2.2-0.3,3-0.9c0.9-0.7,1.4-1.6,1.4-2.8C88.5,49.2,88,48.3,87.1,47.5 M86.3,52.1
	c-0.6,0.5-1.3,0.7-2.3,0.7c-1,0-1.7-0.2-2.3-0.7c-0.6-0.5-0.9-1.1-0.9-1.8c0-0.7,0.3-1.3,0.9-1.8c0.6-0.5,1.4-0.7,2.3-0.7
	c0.8,0,1.6,0.2,2.1,0.6c0.7,0.5,1,1.1,1,1.9C87.2,51,86.9,51.6,86.3,52.1"/>
<path class="st0" d="M56.8,53.7h1.4l-4.5-7.2l-4.5,7.2h1.4l0.8-1.3h4.7L56.8,53.7z M52,51.3l1.7-2.8l1.7,2.8H52z"/>
<path class="st0" d="M133.2,53.7h1.4l-4.5-7.2l-4.5,7.2h1.4l0.8-1.3h4.7L133.2,53.7z M128.4,51.3l1.7-2.8l1.7,2.8H128.4z"/>
<path class="st0" d="M19.6,53.7H21l-4.5-7.2l-4.5,7.2h1.4l0.8-1.3h4.7L19.6,53.7z M14.8,51.3l1.7-2.8l1.7,2.8H14.8z"/>
<polygon class="st0" points="88.8,63.3 84.7,63.3 84.7,59.1 88.8,59.1 88.8,59.7 85.4,59.7 85.4,60.8 87.9,60.8 87.9,61.5 
	85.4,61.5 85.4,62.6 88.8,62.6 "/>
<polygon class="st0" points="34.2,63.3 36.4,58.8 38.3,61.9 40.2,58.9 42.4,63.3 41.5,63.3 40.1,60.4 38.3,63.1 36.5,60.3 
	35.1,63.3 "/>
<path class="st0" d="M56.2,59.1c0.7,0,1.5,0.5,1.5,1.3c0,0.8-0.7,1.3-1.3,1.4l1.5,1.4h-1.1l-1.5-1.4h-1.8v1.4h-0.8v-4.1H56.2z
	 M53.4,59.8v1.3H56c0.5,0,0.8-0.2,0.8-0.6c0-0.4-0.5-0.7-0.9-0.7H53.4z"/>
<polygon class="st0" points="76.6,59.1 76.6,63.3 77.4,63.3 77.4,62.2 78.7,61.4 80.8,63.3 82,63.3 79.3,60.8 81.7,59.1 80.4,59.1 
	77.4,61.3 77.4,59.1 "/>
<polygon class="st0" points="98.4,59.1 98.4,63.3 99.2,63.3 99.2,61.5 102.4,61.5 102.4,63.3 103.2,63.3 103.2,59.1 102.4,59.1 
	102.4,60.9 99.2,60.9 99.2,59.1 "/>
<path class="st0" d="M73.2,63.3h0.9l-2.9-4.4l-2.9,4.4h0.9l0.5-0.8h2.9L73.2,63.3z M70.2,61.8l1-1.6l1,1.6H70.2z"/>
<path class="st0" d="M49.3,63.3h0.9l-2.9-4.4l-2.9,4.4h0.9l0.5-0.8h2.9L49.3,63.3z M46.2,61.8l1-1.6l1,1.6H46.2z"/>
<path class="st0" d="M95.5,62.1c-0.4,0.4-0.9,0.6-1.6,0.6c-0.6,0-1-0.1-1.4-0.4c-0.3-0.3-0.5-0.6-0.5-1.1c0-0.4,0.2-0.8,0.5-1
	c0.3-0.3,0.8-0.4,1.3-0.4c0.7,0,1.2,0.2,1.6,0.6l0.6-0.5c-0.5-0.6-1.3-0.8-2.2-0.8c-0.7,0-1.3,0.2-1.8,0.6c-0.6,0.4-0.9,1-0.9,1.7
	c0,0.7,0.3,1.2,0.8,1.7c0.5,0.4,1.1,0.6,1.8,0.6c0.5,0,1-0.1,1.3-0.2c0.3-0.1,0.6-0.3,0.9-0.6L95.5,62.1z"/>
<path class="st0" d="M64.4,59.1c0.7,0,1.5,0.5,1.5,1.3c0,0.8-0.7,1.3-1.3,1.4l1.5,1.4H65l-1.5-1.4h-1.8v1.4h-0.8v-4.1H64.4z
	 M61.6,59.8v1.3h2.6c0.5,0,0.8-0.2,0.8-0.6c0-0.4-0.5-0.7-1-0.7H61.6z"/>
<path class="st0" d="M59.6,10.1c-0.3-0.2-0.4-0.9-0.3-1.2c0.2,0,0.8,0.3,0.9,0.5c-0.3-0.3-0.8-0.8-0.7-1.5c0.2,0,0.6,0.1,0.8,0.3
	c-0.2-0.2-0.6-0.7-0.5-1.2c0.3,0,0.7,0.2,0.8,0.3c-0.3-0.2-0.6-0.8-0.4-1.3c0.4,0,0.7,0.2,0.7,0.3c-0.2-0.4-0.3-0.9-0.2-1.2
	c0.2,0,0.5,0.2,0.5,0.4c-0.1-0.5,0-1,0.4-1.1c0.3,0.2,0.5,0.6,0.3,1.2c0.1-0.2,0.4-0.3,0.6-0.2c0.1,0.3,0,0.8-0.3,1.1
	c0-0.2,0.4-0.2,0.7-0.1c0.1,0.5-0.2,0.9-0.5,1.2c0.2-0.1,0.5-0.2,0.9-0.1c0,0.4-0.3,1-0.7,1.2c0.2-0.1,0.6-0.2,0.9-0.1
	c0,0.6-0.4,0.9-0.6,1.2c0.2-0.2,0.6-0.2,0.8-0.1c0,0.5-0.3,1-0.8,1.2L59.6,10.1z"/>
<path class="st0" d="M77.9,10.1c0.3-0.2,0.4-0.9,0.3-1.2c-0.2,0-0.8,0.3-0.9,0.5C77.6,9.1,78.1,8.6,78,8c-0.2,0-0.6,0.1-0.8,0.3
	c0.2-0.2,0.6-0.7,0.5-1.2C77.5,7,77,7.2,77,7.4c0.3-0.2,0.6-0.8,0.4-1.3c-0.4,0-0.7,0.2-0.7,0.3C76.9,6,77,5.5,76.9,5.2
	c-0.2,0-0.5,0.2-0.5,0.4c0.1-0.5,0-1-0.4-1.1c-0.3,0.2-0.5,0.6-0.3,1.2c-0.1-0.2-0.4-0.3-0.6-0.2c-0.1,0.3,0,0.8,0.3,1.1
	c0-0.2-0.4-0.2-0.7-0.1c-0.1,0.5,0.2,0.9,0.5,1.2c-0.2-0.1-0.5-0.2-0.9-0.1c0,0.4,0.3,1,0.7,1.2c-0.2-0.1-0.6-0.2-0.9-0.1
	c0,0.6,0.4,0.9,0.6,1.2c-0.2-0.2-0.6-0.2-0.8-0.1c0,0.5,0.3,1,0.8,1.2L77.9,10.1z"/>
<path class="st0" d="M64.4,11.3c-0.3-0.1-0.7-1-0.6-1.5c0.2,0,0.5,0.2,0.7,0.4C64.4,10,64,9.4,64.2,8.7c0.3,0.1,0.5,0.1,0.6,0.4
	c-0.1-0.2-0.6-0.8-0.3-1.4c0.3,0,0.5,0.2,0.7,0.4c-0.2-0.2-0.4-0.9-0.2-1.4c0.2,0,0.5,0.3,0.6,0.5c-0.1-0.3-0.4-0.9-0.1-1.4
	c0.2,0.1,0.4,0.3,0.5,0.5c-0.1-0.3,0-0.8,0.4-1c0.3,0.2,0.4,0.7,0.3,1.1c0.1-0.2,0.3-0.4,0.5-0.5c0.3,0.5-0.1,1.1-0.2,1.4
	c0.2-0.3,0.4-0.4,0.6-0.4c0.2,0.5-0.2,1.1-0.3,1.4c0.2-0.2,0.4-0.3,0.7-0.3c0.1,0.5-0.1,1-0.4,1.4c0.2-0.2,0.5-0.4,0.6-0.4
	c0.2,0.6-0.1,1.3-0.3,1.6c0.2-0.2,0.3-0.4,0.6-0.5c0.2,0.5-0.2,1.6-0.6,1.8L64.4,11.3z"/>
<path class="st0" d="M73,11.3c0.3-0.1,0.7-1,0.6-1.5c-0.2,0-0.5,0.2-0.7,0.4c0.1-0.2,0.6-0.8,0.3-1.5c-0.3,0.1-0.5,0.1-0.6,0.4
	c0.1-0.2,0.6-0.8,0.3-1.4c-0.3,0-0.5,0.2-0.7,0.4c0.2-0.2,0.4-0.9,0.2-1.4c-0.2,0-0.5,0.3-0.6,0.5c0.1-0.3,0.4-0.9,0.1-1.4
	c-0.2,0.1-0.4,0.3-0.5,0.5c0.1-0.3,0-0.8-0.4-1c-0.3,0.2-0.4,0.7-0.3,1.1c-0.1-0.2-0.3-0.4-0.5-0.5c-0.3,0.5,0.1,1.1,0.2,1.4
	c-0.2-0.3-0.4-0.4-0.6-0.4c-0.2,0.5,0.2,1.1,0.3,1.4c-0.2-0.2-0.4-0.3-0.7-0.3c-0.1,0.5,0.1,1,0.4,1.4c-0.2-0.2-0.5-0.4-0.6-0.4
	c-0.2,0.6,0.1,1.3,0.3,1.6c-0.2-0.2-0.3-0.4-0.6-0.5c-0.2,0.5,0.2,1.6,0.6,1.8L73,11.3z"/>
<path class="st0" d="M68.7,24c-1.5,0-2.5,1.3-2.5,2.3c0,1.1,0.3,1.5,1.2,2.2c0.4,0.3,1.3,0.9,1.3,1.5c0-0.6,0.9-1.2,1.3-1.5
	c0.9-0.7,1.2-1.1,1.2-2.2C71.2,25.3,70.2,24,68.7,24 M68.1,28.3c-1.4-0.9-1.6-2.9,0.1-3.6C67.4,25.5,67.3,27.3,68.1,28.3 M68.7,28.3
	c-0.7-1.3-0.5-2.2,0-3.4C69.2,26.1,69.4,27.1,68.7,28.3 M69.3,28.3c0.7-1,0.7-2.8-0.1-3.6C71,25.4,70.8,27.4,69.3,28.3"/>
<polygon class="st0" points="55.1,38.4 66.4,38.4 66.4,37.5 55.2,37.5 "/>
<path class="st0" d="M67.5,35.2c0,0.9-0.4,1.4-1.1,1.6l-0.1,0v1.6c0,0,0.1,0.1,0.2,0.1c0.1,0,0.1-0.1,0.1-0.1V37
	c0.6-0.2,1.2-0.6,1.2-1.8H67.5z"/>
<path class="st0" d="M62.9,37h-0.6c-0.3,0-0.5-0.2-0.5-0.5v0v0c0-0.5,0.2-0.5,0.5-0.5h0.6c0.1,0,0.2-0.1,0.2-0.2
	c0-0.1-0.1-0.2-0.2-0.2h-0.6c-0.2,0-0.4,0-0.6,0.3c-0.2-0.2-0.4-0.3-0.6-0.3h-0.6c-0.1,0-0.2,0.1-0.2,0.2c0,0.1,0.1,0.2,0.2,0.2h0.6
	c0.2,0,0.5,0.1,0.5,0.5c0,0.4-0.1,0.5-0.5,0.5h-0.6c-0.1,0-0.2,0.1-0.2,0.2c0,0.1,0.1,0.2,0.2,0.2h0.6c0.3,0,0.5-0.1,0.6-0.3
	c0.1,0.2,0.3,0.3,0.6,0.3h0.6c0.1,0,0.2-0.1,0.2-0.2C63.1,37.1,63,37,62.9,37"/>
<polygon class="st0" points="82.3,38.4 71,38.4 71,37.5 82.2,37.5 "/>
<path class="st0" d="M75.7,31.2H61.7l-1.4,4h16.8L75.7,31.2z M67.1,34.6l1.3-1.7l-1.1-1l-1.2,1.2l0.6,0.7l-0.3,0.2l-0.6-0.7
	l-1.5,1.5l-0.9-1l-0.9,0.9l-1.4-1.7l1.6-1.6l0.8,0.9l1-1l1.3,1.4l1.4-1.5l1.4,1.3l1.4-1.3l1.4,1.5l1.3-1.4l1,1l0.8-0.9l1.6,1.6
	l-1.4,1.7l-0.9-0.9l-0.9,1l-1.5-1.5l-0.6,0.7l-0.3-0.2l0.6-0.7l-1.2-1.2l-1.1,1l1.3,1.7H67.1z M73.5,32.7l-0.4,0.4h1.3L74,32.7
	l0.5-0.6l1.1,1.1l-0.9,1.1l-0.9-0.9l-0.9,1l-1.2-1.2l1-1.1L73.5,32.7z"/>
<polygon class="st0" points="68.7,33.2 69.5,34.3 67.9,34.3 "/>
<polygon class="st0" points="63.9,32.7 64.3,33.1 63,33.1 63.4,32.7 62.9,32.1 61.8,33.2 62.7,34.3 63.6,33.3 64.5,34.3 65.6,33.1 
	64.6,32 "/>
<path class="st0" d="M80.5,25.9l-0.3-0.1l-1.7-0.6c-1.7-0.7-3-1.2-3-4.1v-2.9c0.9-0.4,1.5-1.5,1.5-2.8c0-1.6-0.9-3-2.1-3
	c-1.2,0-2.1,1.3-2.1,3c0,1.3,0.6,2.5,1.5,2.8v3.7c0,3.7-2.1,5.1-4.1,6.4c-0.8,0.5-1.3,1-1.6,1.5c-0.2-0.5-0.7-1-1.6-1.5
	c-2-1.3-4.1-2.7-4.1-6.4v-3.7c0.9-0.4,1.5-1.5,1.5-2.8c0-1.6-0.9-3-2.1-3c-1.2,0-2.1,1.3-2.1,3c0,1.3,0.6,2.5,1.5,2.8v2.9
	c0,2.9-1.3,3.4-3,4.1l-1.7,0.6l-0.3,0.1c-1.7,0.6-4.3,2.2-3.1,6.4l0.9,3l0.3,0.9c0.2,0.6,0.2,0.9,0.2,1.3l-0.2,1
	c0,0,0.1,0.1,0.2,0.1c0.1,0,0.2-0.1,0.2-0.1l0.2-1c0-0.4,0-0.7-0.2-1.4L55,35.4h4.2c0.1,0,0.3-0.1,0.3-0.2c0.3-0.9,1.5-4.3,1.5-4.5
	h5.7c0.1,0.3,0.4,0.7,0.9,0.7c0.5,0,0.8-0.2,1-0.6c0.2,0.3,0.5,0.6,1,0.6c0.5,0,0.8-0.3,0.9-0.7h5.7c0.1,0.2,1.2,3.6,1.5,4.5
	c0,0.1,0.2,0.2,0.3,0.2h4.3L82.2,36C82,36.7,82,37,82,37.4l0.2,1c0,0,0.1,0.1,0.2,0.1c0.1,0,0.2-0.1,0.2-0.1l-0.2-1
	c0-0.4,0-0.6,0.2-1.3l0.3-0.9l0.9-3C84.8,28,82.2,26.4,80.5,25.9 M60.6,15.4c0-1.5,0.8-2.7,1.8-2.7c1,0,1.8,1.2,1.8,2.7
	c0,1.5-0.8,2.7-1.8,2.7C61.4,18,60.6,16.9,60.6,15.4 M61.3,30.4c-0.6-0.8-1.2-1.5-2.7-1.5c-1.4,0-2.8,1-2.8,2.5c0,1.3,1.1,2,2.1,2
	c0.5,0,1-0.3,1.2-0.7c0.2-0.5,0-0.8-0.1-0.9c-0.1-0.1-0.3-0.2-0.4-0.1c0,0.1,0.1,0.1,0.1,0.2c0,0.1,0,0.2-0.1,0.3
	c-0.1,0.1-0.3,0.2-0.4,0.2c-0.2,0-0.6-0.2-0.6-0.6c0-0.5,0.4-0.8,0.9-0.8c0.5,0,1.3,0.4,1.3,1.4c0,0.5-0.3,1-0.8,1.4
	c-0.6,0.3-1.5,0.3-2-0.1c0,0.3-0.1,0.6-0.3,0.6c-0.2,0.1-0.3,0.1-0.4,0c0.1-0.1,0.1-0.3,0.1-0.4c0-0.3-0.1-0.5-0.2-0.7
	c-0.3-0.5-0.7-1-0.7-1.7c0-1.9,1.7-3.1,3.4-3.1c1.4,0,2.6,0.7,3.3,2H61.3z M66.8,30.4h-4.6l0,0c-0.8-1.5-2-2.3-3.6-2.3
	c-1.8,0-3.7,1.4-3.7,3.4c0,0.8,0.4,1.4,0.7,1.9c0.1,0.1,0.3,0.7-0.1,1.1c0.2,0.2,0.7,0.2,1,0.1c0.2-0.1,0.3-0.3,0.4-0.5
	c0.7,0.3,1.4,0.3,2-0.1c0.6-0.4,1-1,1-1.6c0-1.2-1-1.7-1.6-1.7c-0.7,0-1.2,0.5-1.2,1.1c0,0.6,0.6,0.9,0.9,0.9c0.4,0,0.6-0.3,0.7-0.4
	c0,0.1,0.1,0.2,0,0.4c-0.1,0.3-0.4,0.5-0.9,0.5c-0.9,0-1.8-0.6-1.8-1.7c0-1.4,1.3-2.2,2.5-2.2c1.2,0,1.8,0.5,2.3,1.2
	c-0.1,0.2-1.2,3.5-1.5,4.4c0,0.1-0.1,0.2-0.3,0.2h-4.2l-0.6-1.9h0c-0.2-0.9-0.3-1.7-0.3-2.5c0-1.8,0.8-3.1,3.1-3.8
	c0.9-0.3,2.2-0.7,3-1.1c0.4-0.2,1.6-0.9,2.1-1.7c0.7,2.6,2.9,4.1,3.6,4.5c0.9,0.5,1.3,0.8,1.6,1c-0.1,0-0.1,0-0.2,0.1
	C67,30,66.9,30.2,66.8,30.4 M67.7,31.1c-0.4,0-0.6-0.3-0.6-0.5c0-0.2,0.1-0.3,0.2-0.4c0.2-0.1,0.3-0.1,0.4,0
	c0.1-0.4,0.2-0.5-1.8-1.6c-2.2-1.3-3.5-3.6-3.7-5.3c-0.2,1-1.5,1.9-2.4,2.4c-0.7,0.4-2,0.8-2.9,1c-2.2,0.7-3.1,1.9-3.3,3.6
	c0-2.4,1.7-3.6,3.2-4.1l0.3-0.1l1.7-0.6c1.7-0.7,3.2-1.3,3.2-4.4v-2.8c0.1,0,0.2,0,0.3,0c0.1,0,0.2,0,0.3,0v3.6
	c0,3.9,2.2,5.3,4.3,6.7c1.1,0.7,1.5,1.2,1.5,1.8C68.5,30.9,68.1,31.1,67.7,31.1 M73.2,15.4c0-1.5,0.8-2.7,1.8-2.7
	c1,0,1.8,1.2,1.8,2.7c0,1.5-0.8,2.7-1.8,2.7C74,18,73.2,16.9,73.2,15.4 M76.1,30.4h-0.6c0.7-1.3,1.9-2,3.3-2c1.6,0,3.4,1.2,3.4,3.1
	c0,0.7-0.3,1.2-0.7,1.7c-0.1,0.2-0.2,0.4-0.2,0.7c0,0.1,0,0.3,0.1,0.4c-0.1,0-0.3,0-0.4,0c-0.2-0.1-0.3-0.3-0.3-0.6
	c-0.5,0.4-1.5,0.4-2,0.1c-0.5-0.3-0.8-0.8-0.8-1.4c0-1,0.8-1.4,1.3-1.4c0.5,0,0.9,0.3,0.9,0.8c0,0.4-0.4,0.6-0.6,0.6
	c-0.1,0-0.3-0.1-0.4-0.2c0-0.1-0.1-0.2-0.1-0.3c0-0.1,0.1-0.1,0.1-0.2c-0.1,0-0.3,0-0.4,0.1c-0.2,0.2-0.3,0.5-0.1,0.9
	c0.2,0.4,0.6,0.7,1.2,0.7c1,0,2.1-0.7,2.1-2c0-1.6-1.5-2.5-2.8-2.5C77.4,28.9,76.7,29.7,76.1,30.4 M83,33.2l-0.6,1.9h-4.2
	c-0.2,0-0.2-0.1-0.3-0.2c-0.3-0.9-1.4-4-1.5-4.4c0.5-0.7,1.1-1.2,2.4-1.2c1.2,0,2.5,0.8,2.5,2.2c0,1.1-0.9,1.7-1.8,1.7
	c-0.5,0-0.8-0.3-0.9-0.5c-0.1-0.2-0.1-0.3,0-0.4c0.1,0.2,0.3,0.4,0.7,0.4c0.4,0,0.9-0.3,0.9-0.9c0-0.6-0.5-1.1-1.2-1.1
	c-0.6,0-1.6,0.5-1.6,1.7c0,0.6,0.4,1.2,1,1.6c0.6,0.4,1.3,0.4,2,0.1c0.1,0.2,0.2,0.4,0.4,0.5c0.3,0.1,0.9,0.1,1-0.1
	c-0.4-0.4-0.2-0.9-0.1-1.1c0.4-0.5,0.7-1.1,0.7-1.9c0-2-1.9-3.4-3.7-3.4c-1.6,0-2.9,0.8-3.6,2.3l0,0h-4.6c0-0.2-0.2-0.4-0.4-0.5
	c-0.1,0-0.1,0-0.2-0.1c0.2-0.2,0.7-0.5,1.6-1c0.7-0.4,3-2,3.6-4.5c0.5,0.8,1.7,1.5,2.2,1.7c0.7,0.4,2.1,0.8,3,1.1
	c2.3,0.7,3.1,2,3.1,3.8C83.4,31.5,83.3,32.3,83,33.2L83,33.2z M80.4,26.7c-0.9-0.3-2.2-0.7-2.9-1c-0.9-0.5-2.3-1.4-2.4-2.4
	c-0.1,1.7-1.5,4-3.7,5.3c-1.9,1.1-1.8,1.2-1.8,1.6c0.1-0.1,0.3-0.1,0.4,0c0.1,0.1,0.2,0.3,0.2,0.4c0,0.3-0.2,0.5-0.6,0.5
	c-0.4,0-0.8-0.2-0.8-0.7c0-0.6,0.4-1.1,1.5-1.8c2.1-1.4,4.2-2.7,4.2-6.7v-3.6c0.1,0,0.2,0,0.3,0c0.1,0,0.2,0,0.3,0v2.8
	c0,3.1,1.6,3.7,3.2,4.4l1.7,0.6l0.3,0.1c1.6,0.5,3.2,1.7,3.2,4.1C83.5,28.6,82.6,27.4,80.4,26.7"/>
<path class="st0" d="M62.7,15.4c0,0.5-0.1,0.8-0.2,0.8c-0.1,0-0.2-0.4-0.2-0.8c0-0.5,0.1-0.8,0.2-0.8C62.6,14.5,62.7,14.9,62.7,15.4
	"/>
<path class="st0" d="M62,13.3c-0.3,0.2-0.5,0.5-0.6,1c0,0.1,0,0.2,0.1,0.2c0.1,0,0.2,0,0.2-0.1c0.1-0.4,0.3-0.7,0.5-0.8
	c0.1,0,0.1-0.1,0-0.2C62.2,13.3,62.1,13.3,62,13.3"/>
<path class="st0" d="M61.7,16.9c-0.1,0.1-0.1,0.1,0,0.2c0.2,0.3,0.5,0.4,0.7,0.4c0.2,0,0.4-0.1,0.6-0.3c0.1-0.1,0.1-0.2,0-0.2
	C63,17,62.9,17,62.8,17c-0.1,0.1-0.3,0.2-0.4,0.2c-0.2,0-0.4-0.2-0.5-0.3C61.9,16.9,61.8,16.9,61.7,16.9"/>
<path class="st0" d="M63.5,15.1c-0.1,0-0.2,0.1-0.1,0.2v0.1c0,0.4-0.1,0.8-0.2,1.1c0,0.1,0,0.2,0.1,0.2c0.1,0,0.2,0,0.2-0.1
	c0.1-0.4,0.2-0.8,0.2-1.2l0-0.1C63.6,15.2,63.6,15.1,63.5,15.1"/>
<path class="st0" d="M61.2,15.2l0,0.2c0,0.3,0,0.7,0.1,1c0,0.1,0.1,0.1,0.2,0.1c0.1,0,0.1-0.1,0.1-0.2c-0.1-0.3-0.1-0.6-0.1-0.9
	l0-0.2c0-0.1-0.1-0.2-0.2-0.2C61.3,15,61.2,15.1,61.2,15.2"/>
<path class="st0" d="M62.7,13.4c0,0.1,0,0.2,0,0.2c0.2,0.2,0.4,0.5,0.5,0.9c0,0.1,0.1,0.1,0.2,0.1s0.1-0.1,0.1-0.2
	c-0.1-0.5-0.4-0.9-0.6-1.1C62.8,13.3,62.7,13.3,62.7,13.4"/>
<path class="st0" d="M74.7,15.4c0,0.5,0.1,0.8,0.2,0.8c0.1,0,0.2-0.4,0.2-0.8c0-0.5-0.1-0.8-0.2-0.8C74.8,14.5,74.7,14.9,74.7,15.4"
	/>
<path class="st0" d="M75.4,13.3c0.3,0.2,0.5,0.5,0.6,1c0,0.1,0,0.2-0.1,0.2c-0.1,0-0.2,0-0.2-0.1c-0.1-0.4-0.3-0.7-0.5-0.8
	c-0.1,0-0.1-0.1,0-0.2C75.2,13.3,75.3,13.3,75.4,13.3"/>
<path class="st0" d="M75.7,16.9c0.1,0.1,0.1,0.1,0,0.2c-0.2,0.3-0.5,0.4-0.7,0.4c-0.2,0-0.4-0.1-0.6-0.3c-0.1-0.1-0.1-0.2,0-0.2
	c0.1-0.1,0.2-0.1,0.2,0c0.1,0.1,0.3,0.2,0.4,0.2c0.2,0,0.4-0.2,0.5-0.3C75.5,16.9,75.6,16.9,75.7,16.9"/>
<path class="st0" d="M73.9,15.1c0.1,0,0.2,0.1,0.2,0.2l0,0.1c0,0.4,0.1,0.8,0.2,1.1c0,0.1,0,0.2-0.1,0.2c-0.1,0-0.2,0-0.2-0.1
	c-0.1-0.4-0.2-0.8-0.2-1.2l0-0.1C73.8,15.2,73.8,15.1,73.9,15.1"/>
<path class="st0" d="M76.2,15.2l0,0.2c0,0.3,0,0.7-0.1,1c0,0.1-0.1,0.1-0.2,0.1c-0.1,0-0.1-0.1-0.1-0.2c0.1-0.3,0.1-0.6,0.1-0.9
	l0-0.2c0-0.1,0.1-0.2,0.2-0.2C76.1,15,76.2,15.1,76.2,15.2"/>
<path class="st0" d="M74.7,13.4c0,0.1,0,0.2,0,0.2c-0.2,0.2-0.4,0.5-0.5,0.9c0,0.1-0.1,0.1-0.2,0.1c-0.1,0-0.1-0.1-0.1-0.2
	c0.1-0.5,0.4-0.9,0.6-1.1C74.6,13.3,74.7,13.3,74.7,13.4"/>
<path class="st0" d="M69,17c0,0,0.1,0,0.1-0.1c0.2-0.1,0.3-0.4,0.3-0.6c0-0.2-0.1-0.3-0.2-0.5c-0.1-0.2-0.4-0.3-0.6-0.3
	c-0.4,0-0.8,0.3-0.8,0.8c0,0.3,0.2,0.6,0.5,0.7c-0.2,0.1-0.3,0.4-0.3,0.6v4.9c0,0.4,0.3,0.8,0.6,0.8c0.4,0,0.6-0.4,0.6-0.8v-4.9
	C69.3,17.4,69.2,17.2,69,17 M68.2,16.3c0-0.3,0.2-0.5,0.5-0.5c0.3,0,0.5,0.2,0.5,0.5c0,0.3-0.2,0.5-0.5,0.5
	C68.4,16.9,68.2,16.6,68.2,16.3 M68.3,17.7c0-0.3,0.2-0.5,0.4-0.5c0.2,0,0.4,0.2,0.4,0.5v4.9c0,0.2-0.2,0.5-0.4,0.5
	c-0.1,0-0.3-0.1-0.3-0.3c0,0,0,0,0,0c0-0.1-0.1-0.2-0.1-0.2V17.7z"/>
<path class="st0" d="M69.9,35.2c0,0.9,0.4,1.4,1.1,1.6l0.1,0v1.6c0,0-0.1,0.1-0.2,0.1c-0.1,0-0.1-0.1-0.1-0.1V37
	c-0.6-0.2-1.2-0.6-1.2-1.8H69.9z"/>
<path class="st0" d="M77,37h-0.6c-0.3,0-0.5-0.2-0.5-0.5c0-0.5,0.2-0.5,0.5-0.5H77c0.1,0,0.2-0.1,0.2-0.2c0-0.1-0.1-0.2-0.2-0.2
	h-0.6c-0.2,0-0.4,0-0.6,0.3c-0.2-0.2-0.4-0.3-0.6-0.3h-0.6c-0.1,0-0.2,0.1-0.2,0.2c0,0.1,0.1,0.2,0.2,0.2h0.6c0.2,0,0.5,0.1,0.5,0.5
	c0,0.4-0.1,0.5-0.5,0.5h-0.6c-0.1,0-0.2,0.1-0.2,0.2c0,0.1,0.1,0.2,0.2,0.2h0.6c0.3,0,0.5-0.1,0.6-0.3c0.1,0.2,0.3,0.3,0.6,0.3H77
	c0.1,0,0.2-0.1,0.2-0.2C77.1,37.1,77,37,77,37"/>
<path class="st0" d="M79.6,24.5c-0.5-0.4-0.7-1-0.7-2.3V11.6c0,0,0.1,0,0.1-0.1c0.6-0.3,0.7-0.8,0.5-1.2c-0.1-0.3-0.4-0.5-0.7-0.6V3
	l-0.2,0.1c-2.7,1.1-6.2,1.7-9.9,1.7c-3.7,0-7.2-0.6-9.9-1.7L58.6,3v6.7c-0.3,0-0.6,0.3-0.7,0.6c-0.2,0.4-0.1,1,0.5,1.2
	c0,0,0.1,0,0.1,0.1v10.5c0,1.3-0.2,1.9-0.7,2.3c-0.3,0.3-0.4,0.3-0.1,0.3c1.3,0,2-1,2-2.9v-9.9c1.8,0.6,4.2,1,6.6,1.2
	c0.5,0.6,0.9,1.3,1.1,1.9c0,0.1,0.1,0.1,0.2,0.1h2c0.1,0,0.2,0,0.2-0.1c0.2-0.6,0.6-1.4,1.1-1.9c2.3-0.2,4.7-0.6,6.6-1.2V22
	c0,1.8,0.7,2.9,2,2.9C80,24.8,79.9,24.8,79.6,24.5 M78.6,10.1c0.1,0,0.2,0,0.3,0c-0.2,0.2-0.5,0.5-0.7,0.8c-0.3,0.4-0.5,0.7-0.7,0.8
	c-0.4,0.1-0.9,0.3-1.4,0.4c0.2-0.2,0.5-0.5,0.7-0.8c0.3-0.4,0.6-0.7,0.9-0.9C78.1,10.3,78.3,10.2,78.6,10.1 M62.1,11
	c-0.2,0.1-0.5,0.2-0.8,0.4c-0.4,0.2-0.9,0.5-1.2,0.4v0c-0.4-0.1-0.7-0.2-1-0.3c0.3-0.1,0.6-0.2,1-0.4c0.4-0.2,0.8-0.4,1-0.3
	C61.5,10.9,61.8,11,62.1,11 M61.4,11.6c0.4-0.2,0.8-0.4,1.1-0.4c0.4,0.1,0.7,0.1,1.1,0.2c-0.3,0.1-0.5,0.3-0.9,0.4
	c-0.4,0.2-0.9,0.5-1.2,0.5v0c-0.4-0.1-0.7-0.2-1.1-0.3C60.8,11.9,61.1,11.7,61.4,11.6 M62.9,11.9c0.4-0.2,0.9-0.5,1.2-0.5
	c0.4,0.1,0.8,0.1,1.2,0.1c-0.3,0.1-0.5,0.3-0.8,0.5c-0.5,0.3-0.9,0.6-1.2,0.6c-0.4-0.1-0.8-0.2-1.2-0.2
	C62.3,12.2,62.6,12.1,62.9,11.9 M64.5,12.1c0.4-0.3,0.8-0.5,1.1-0.6c0.4,0,0.8,0.1,1.2,0.1c-0.2,0.1-0.5,0.3-0.8,0.5
	c-0.5,0.3-0.9,0.6-1.2,0.7v0c-0.4-0.1-0.8-0.1-1.2-0.2C63.9,12.5,64.2,12.3,64.5,12.1 M66.1,12.3c0.4-0.3,0.8-0.6,1.1-0.6
	c0.4,0,0.9,0,1.3,0c-0.3,0.2-0.6,0.4-0.9,0.6c-0.4,0.3-0.9,0.6-1.2,0.7c-0.4,0-0.9-0.1-1.3-0.1C65.5,12.7,65.8,12.5,66.1,12.3
	 M67.8,12.4c0.4-0.3,0.9-0.6,1.2-0.7c0.5,0,0.9,0,1.3,0c-0.3,0.2-0.6,0.4-0.8,0.6c-0.4,0.3-0.8,0.7-1.1,0.8c-0.5,0-1,0-1.5-0.1
	C67.1,12.8,67.4,12.6,67.8,12.4 M69.5,12.4c0.4-0.3,0.8-0.7,1.2-0.8c0.5,0,0.9-0.1,1.3-0.1c-0.2,0.2-0.5,0.4-0.8,0.7
	c-0.4,0.4-0.9,0.8-1.2,0.8c-0.5,0-0.9,0-1.3,0C69,12.9,69.3,12.6,69.5,12.4 M71.3,12.3c0.4-0.4,0.8-0.7,1.1-0.8
	c0.5-0.1,1-0.1,1.4-0.2c-0.2,0.2-0.5,0.4-0.8,0.7c-0.4,0.4-0.8,0.7-1.1,0.9c-0.5,0.1-1,0.1-1.5,0.1C70.8,12.8,71,12.6,71.3,12.3
	 M73.2,12.1c0.4-0.4,0.8-0.7,1.1-0.9c0.5-0.1,0.9-0.2,1.4-0.3c-0.2,0.2-0.5,0.4-0.7,0.7c-0.3,0.4-0.7,0.7-1,0.9
	c-0.5,0.1-1,0.2-1.5,0.2C72.7,12.6,72.9,12.4,73.2,12.1 M75,11.8c0.3-0.4,0.7-0.7,1-0.9c0.5-0.1,0.9-0.2,1.4-0.4
	c-0.2,0.2-0.4,0.5-0.6,0.7c-0.3,0.4-0.7,0.8-1,1c-0.5,0.1-1,0.2-1.5,0.3C74.5,12.3,74.8,12.1,75,11.8 M58.2,10.5
	c0.1-0.2,0.3-0.5,0.6-0.4c0.2,0.1,0.4,0.1,0.6,0.2c-0.2,0.1-0.4,0.1-0.6,0.2c-0.2,0.1-0.5,0.2-0.6,0.2
	C58.1,10.7,58.2,10.6,58.2,10.5 M58.2,10.9c0.2,0,0.4-0.1,0.7-0.2c0.3-0.1,0.6-0.3,0.9-0.3c0.3,0.1,0.6,0.2,1,0.3
	c-0.2,0.1-0.5,0.2-0.7,0.3c-0.4,0.2-0.9,0.4-1.2,0.4l0,0c-0.1,0-0.2-0.1-0.2-0.1C58.3,11.2,58.2,11.1,58.2,10.9 M78.9,11.3
	c-0.3,0.1-0.6,0.2-0.9,0.3c0.2-0.2,0.3-0.4,0.4-0.6c0.2-0.3,0.4-0.6,0.7-0.8c0.1,0.1,0.1,0.1,0.1,0.2C79.3,10.7,79.3,11.1,78.9,11.3
	 M58.9,3.5c2.7,1.1,6.2,1.7,9.8,1.7c3.6,0,7.1-0.6,9.8-1.7v6.3c0,0,0,0,0,0c-2.2,0.8-5.2,1.5-9.8,1.5c-4.7,0-7.6-0.8-9.8-1.5
	c0,0,0,0,0,0V3.5z M68.5,13.3l0.1,0.8h0.1l0.1-0.8c0.2,0,0.5,0,0.7,0c-0.2,0.3-0.4,0.7-0.5,0.9c0,0.1-0.1,0.1-0.1,0.1h-0.6
	c-0.1,0-0.1,0-0.1-0.1c-0.1-0.2-0.3-0.6-0.5-0.9C68.1,13.3,68.3,13.3,68.5,13.3 M59.5,22c0,1.3-0.4,2.2-1.1,2.5
	c0.4-0.5,0.5-1.2,0.5-2.3V11.8c0.2,0.1,0.4,0.1,0.6,0.2V22z M69.7,14.9c0,0.1-0.1,0.1-0.1,0.1h-1.8c0,0-0.1,0-0.1-0.1
	c-0.1-0.3-0.5-1.1-0.9-1.6c0.2,0,0.5,0,0.7,0c0.2,0.3,0.5,0.9,0.6,1.2c0,0.1,0.1,0.1,0.2,0.1h0.9c0,0,0.1,0,0.2-0.1
	c0.1-0.2,0.3-0.8,0.6-1.2c0.2,0,0.5,0,0.7,0C70.2,13.8,69.8,14.6,69.7,14.9 M77.9,22V12c0.2-0.1,0.4-0.1,0.6-0.2v10.4
	c0,1.1,0.1,1.8,0.5,2.3C78.3,24.1,77.9,23.3,77.9,22"/>
</svg>

