<?xml version="1.0" encoding="utf-8"?>
<!-- Generator: Adobe Illustrator 25.2.1, SVG Export Plug-In . SVG Version: 6.00 Build 0)  -->
<svg version="1.1" id="Calque_1" xmlns="http://www.w3.org/2000/svg" xmlns:xlink="http://www.w3.org/1999/xlink" x="0px" y="0px"
	 viewBox="0 0 136.5 21.7" style="enable-background:new 0 0 136.5 21.7;" xml:space="preserve">
<polygon points="2.5,2.7 2.5,9.6 8.2,9.6 8.2,8.5 3.7,8.5 3.7,2.7 "/>
<polygon points="31,9.6 35,2.3 38.1,7.2 41.3,2.3 45.2,9.6 43.8,9.6 41.3,4.7 38.1,9.3 35,4.7 32.4,9.6 "/>
<polygon points="61.5,9.6 65.4,2.3 68.6,7.2 71.8,2.3 75.7,9.6 74.3,9.6 71.8,4.7 68.6,9.3 65.4,4.7 62.9,9.6 "/>
<path d="M97.1,9.8c2.6,0,4.1-1.2,4.1-2.8V2.7H100v4.1c0,1.1-0.9,1.8-2.9,1.8s-2.9-0.7-2.9-1.8V2.7H93V7C93,8.6,94.5,9.8,97.1,9.8"/>
<polygon points="106.7,2.7 106.7,9.6 108,9.6 108,4.4 113.2,9.6 114.3,9.6 114.3,2.7 113.1,2.7 113.1,7.9 108.1,2.7 "/>
<rect x="119.9" y="2.7" width="1.2" height="6.9"/>
<path d="M86.8,3.4c-0.8-0.6-1.8-0.9-3-0.9c-1.2,0-2.2,0.3-3,0.9c-0.9,0.7-1.4,1.6-1.4,2.7c0,1.1,0.5,2,1.4,2.7
	c0.8,0.6,1.8,0.9,3,0.9c1.2,0,2.2-0.3,3-0.9c0.9-0.7,1.4-1.6,1.4-2.8C88.2,5,87.7,4.1,86.8,3.4 M86,8c-0.6,0.5-1.3,0.7-2.3,0.7
	c-1,0-1.7-0.2-2.3-0.7c-0.6-0.5-0.9-1.1-0.9-1.8c0-0.7,0.3-1.3,0.9-1.8c0.6-0.5,1.4-0.7,2.3-0.7c0.8,0,1.6,0.2,2.1,0.6
	c0.7,0.5,1,1.1,1,1.9C86.9,6.9,86.6,7.5,86,8"/>
<path d="M56.5,9.6h1.4l-4.5-7.2l-4.5,7.2h1.4l0.8-1.3h4.7L56.5,9.6z M51.7,7.2l1.7-2.8l1.7,2.8H51.7z"/>
<path d="M132.9,9.6h1.4l-4.5-7.2l-4.5,7.2h1.4l0.8-1.3h4.7L132.9,9.6z M128.1,7.2l1.7-2.8l1.7,2.8H128.1z"/>
<path d="M19.3,9.6h1.4l-4.5-7.2l-4.5,7.2H13l0.8-1.3h4.7L19.3,9.6z M14.5,7.2l1.7-2.8l1.7,2.8H14.5z"/>
<polygon points="88.5,19.1 84.4,19.1 84.4,15 88.5,15 88.5,15.6 85.1,15.6 85.1,16.7 87.6,16.7 87.6,17.4 85.1,17.4 85.1,18.5 
	88.5,18.5 "/>
<polygon points="33.9,19.1 36.1,14.7 38,17.7 39.9,14.7 42.1,19.1 41.2,19.1 39.8,16.3 38,19 36.2,16.1 34.8,19.1 "/>
<path d="M55.9,15c0.7,0,1.5,0.5,1.5,1.3c0,0.8-0.7,1.3-1.3,1.4l1.5,1.4h-1.1l-1.5-1.4h-1.8v1.4h-0.8V15H55.9z M53.1,15.7V17h2.6
	c0.5,0,0.8-0.2,0.8-0.6c0-0.4-0.5-0.7-0.9-0.7H53.1z"/>
<polygon points="76.3,15 76.3,19.1 77.1,19.1 77.1,18.1 78.4,17.2 80.5,19.1 81.7,19.1 79,16.7 81.4,15 80,15 77.1,17.1 77.1,15 "/>
<polygon points="98.1,15 98.1,19.1 98.9,19.1 98.9,17.4 102.1,17.4 102.1,19.1 102.8,19.1 102.8,15 102.1,15 102.1,16.7 98.9,16.7 
	98.9,15 "/>
<path d="M72.9,19.1h0.9l-2.9-4.4L68,19.1h0.9l0.5-0.8h2.9L72.9,19.1z M69.9,17.6l1-1.6l1,1.6H69.9z"/>
<path d="M49,19.1h0.9l-2.9-4.4L44,19.1h0.9l0.5-0.8h2.9L49,19.1z M45.9,17.6l1-1.6l1,1.6H45.9z"/>
<path d="M95.2,17.9c-0.4,0.4-0.9,0.6-1.6,0.6c-0.6,0-1-0.1-1.4-0.4c-0.3-0.3-0.5-0.6-0.5-1.1c0-0.4,0.2-0.8,0.5-1
	c0.3-0.3,0.8-0.4,1.3-0.4c0.7,0,1.2,0.2,1.6,0.6l0.6-0.5c-0.5-0.6-1.3-0.8-2.2-0.8c-0.7,0-1.3,0.2-1.8,0.6c-0.6,0.4-0.9,1-0.9,1.7
	c0,0.7,0.3,1.2,0.8,1.7c0.5,0.4,1.1,0.6,1.8,0.6c0.5,0,1-0.1,1.3-0.2c0.3-0.1,0.6-0.3,0.9-0.6L95.2,17.9z"/>
<path d="M64.1,15c0.7,0,1.5,0.5,1.5,1.3c0,0.8-0.7,1.3-1.3,1.4l1.5,1.4h-1.1l-1.5-1.4h-1.8v1.4h-0.8V15H64.1z M61.3,15.7V17h2.6
	c0.5,0,0.8-0.2,0.8-0.6c0-0.4-0.5-0.7-1-0.7H61.3z"/>
</svg>
